/* XPM */
static char * Cheese_xpm[] = {
"64 64 444 2",
"  	c #B5B5B5",
". 	c #8E8E8E",
"+ 	c #000000",
"@ 	c #FFE370",
"# 	c #FEE07E",
"$ 	c #F2C03B",
"% 	c #F1BE32",
"& 	c #FADE72",
"* 	c #FDE386",
"= 	c #F3BB1D",
"- 	c #F4B60E",
"; 	c #FCDC5F",
"> 	c #FFE272",
", 	c #FBDF68",
"' 	c #FBDD64",
") 	c #FFE16D",
"! 	c #FEE373",
"~ 	c #FEE479",
"{ 	c #FDE480",
"] 	c #FDE47F",
"^ 	c #FEE37F",
"/ 	c #F3B24C",
"( 	c #F29F36",
"_ 	c #FDB402",
": 	c #F1DA79",
"< 	c #FDE272",
"[ 	c #FDE270",
"} 	c #FEE371",
"| 	c #FFE372",
"1 	c #FFE374",
"2 	c #FFE271",
"3 	c #FFE171",
"4 	c #F3A736",
"5 	c #F58D03",
"6 	c #FBA907",
"7 	c #F2DB77",
"8 	c #FEE46F",
"9 	c #FEE36F",
"0 	c #FEE06C",
"a 	c #F3A42D",
"b 	c #F79B22",
"c 	c #F69B21",
"d 	c #F39C21",
"e 	c #FCDA65",
"f 	c #FEE271",
"g 	c #FBDC6B",
"h 	c #FCD661",
"i 	c #F5A727",
"j 	c #F89304",
"k 	c #FDE482",
"l 	c #FCE584",
"m 	c #FEF0BA",
"n 	c #FDB601",
"o 	c #F3DA78",
"p 	c #FEE370",
"q 	c #FFE36F",
"r 	c #FEDF6C",
"s 	c #F3971D",
"t 	c #FA8B07",
"u 	c #F98B07",
"v 	c #F68D0B",
"w 	c #FDD763",
"x 	c #FFE270",
"y 	c #F3AA31",
"z 	c #F68D05",
"A 	c #F9A904",
"B 	c #F8B403",
"C 	c #FEE476",
"D 	c #FDE89E",
"E 	c #FFF0BC",
"F 	c #FFE16E",
"G 	c #EFA833",
"H 	c #F3A22B",
"I 	c #FCDB63",
"J 	c #FCD866",
"K 	c #FBD564",
"L 	c #FCD862",
"M 	c #FCDA60",
"N 	c #FDE068",
"O 	c #FEECB1",
"P 	c #FCB500",
"Q 	c #F9E17B",
"R 	c #FFE073",
"S 	c #FFE06E",
"T 	c #EE9419",
"U 	c #F58D05",
"V 	c #FCD95E",
"W 	c #FFE373",
"X 	c #FFF0BB",
"Y 	c #FFEFBA",
"Z 	c #FAB600",
"` 	c #F9B501",
" .	c #262525",
"..	c #F9E17A",
"+.	c #FEE170",
"@.	c #FEE26F",
"#.	c #F9D15E",
"$.	c #FBCF5C",
"%.	c #F59E18",
"&.	c #F89903",
"*.	c #FBD14D",
"=.	c #FDD75D",
"-.	c #FEE06D",
";.	c #FFE371",
">.	c #F7C841",
",.	c #F8C031",
"'.	c #FFE170",
").	c #FEECAB",
"!.	c #F8BC2B",
"~.	c #FBB600",
"{.	c #262523",
"].	c #F9E078",
"^.	c #FEE06E",
"/.	c #F1981E",
"(.	c #F28F04",
"_.	c #FDDC61",
":.	c #FFE36E",
"<.	c #F6BE2C",
"[.	c #FAB607",
"}.	c #FEE272",
"|.	c #FEEEA3",
"1.	c #FEF0B8",
"2.	c #FDF1B9",
"3.	c #FEF1B9",
"4.	c #FDB602",
"5.	c #FCB600",
"6.	c #252623",
"7.	c #FEE16F",
"8.	c #FCCF5D",
"9.	c #FBCF5B",
"0.	c #FCD75A",
"a.	c #FCD658",
"b.	c #FDE16F",
"c.	c #FFE273",
"d.	c #FFEDA9",
"e.	c #FFECAB",
"f.	c #F8BC2F",
"g.	c #FCB501",
"h.	c #FDB600",
"i.	c #FDB500",
"j.	c #FDB400",
"k.	c #252621",
"l.	c #F8E078",
"m.	c #FFE26F",
"n.	c #FEE174",
"o.	c #FFF1BD",
"p.	c #FEF1BD",
"q.	c #FCB700",
"r.	c #FDB501",
"s.	c #FEB502",
"t.	c #FBB700",
"u.	c #FCB503",
"v.	c #FCB404",
"w.	c #FEB303",
"x.	c #FDB303",
"y.	c #252722",
"z.	c #F9DE79",
"A.	c #FEE372",
"B.	c #FEECA3",
"C.	c #F9BB26",
"D.	c #F49B0C",
"E.	c #ED8115",
"F.	c #EE8114",
"G.	c #ED8212",
"H.	c #9F6523",
"I.	c #252526",
"J.	c #FFE46F",
"K.	c #FCB601",
"L.	c #FDB700",
"M.	c #FCB604",
"N.	c #EE8E13",
"O.	c #E9631B",
"P.	c #E86816",
"Q.	c #9D5224",
"R.	c #262524",
"S.	c #C19628",
"T.	c #C99724",
"U.	c #F2AC3B",
"V.	c #F2B038",
"W.	c #FEE16E",
"X.	c #FDE16D",
"Y.	c #F6C93A",
"Z.	c #F7C638",
"`.	c #FFDF68",
" +	c #EAAD62",
".+	c #EB8B2C",
"++	c #ED8410",
"@+	c #F7A807",
"#+	c #FBB400",
"$+	c #FBB500",
"%+	c #FCB602",
"&+	c #F49B09",
"*+	c #EF8112",
"=+	c #EB7219",
"-+	c #E86719",
";+	c #ED7313",
">+	c #F58009",
",+	c #AA6422",
"'+	c #262426",
")+	c #F4B511",
"!+	c #FCB304",
"~+	c #F98D06",
"{+	c #F49210",
"]+	c #F6B918",
"^+	c #F7B60A",
"/+	c #FFDD6B",
"(+	c #FFE470",
"_+	c #FFF1B9",
":+	c #F69F0B",
"<+	c #FEB602",
"[+	c #F08D11",
"}+	c #E8651C",
"|+	c #E6661A",
"1+	c #F17B12",
"2+	c #FA8D06",
"3+	c #AC6C1F",
"4+	c #F3B410",
"5+	c #FDB204",
"6+	c #FB8E07",
"7+	c #FEDF6E",
"8+	c #F9D255",
"9+	c #FFE16C",
"0+	c #FEE175",
"a+	c #FEEBA4",
"b+	c #EF972C",
"c+	c #F37612",
"d+	c #F17E0E",
"e+	c #F89409",
"f+	c #F99D04",
"g+	c #FBAF02",
"h+	c #EA651B",
"i+	c #ED7416",
"j+	c #F47F11",
"k+	c #F8860B",
"l+	c #F98D05",
"m+	c #F2B516",
"n+	c #FDB205",
"o+	c #FB8E09",
"p+	c #F49211",
"q+	c #FEE06F",
"r+	c #FFF1BF",
"s+	c #FFF1C0",
"t+	c #FFF1BC",
"u+	c #F8BE3B",
"v+	c #F5830E",
"w+	c #FB8D07",
"x+	c #F88E07",
"y+	c #FBAA04",
"z+	c #F47A10",
"A+	c #F98D09",
"B+	c #F98C06",
"C+	c #B7731F",
"D+	c #C17514",
"E+	c #F69E0B",
"F+	c #F7A210",
"G+	c #F9C34F",
"H+	c #F7C654",
"I+	c #FDE374",
"J+	c #FDEB99",
"K+	c #FBB81E",
"L+	c #F27E12",
"M+	c #F78B0A",
"N+	c #FA8D07",
"O+	c #F88E06",
"P+	c #FBAA03",
"Q+	c #F7A609",
"R+	c #F6970C",
"S+	c #F7910C",
"T+	c #F98E07",
"U+	c #F98D07",
"V+	c #252525",
"W+	c #F1901C",
"X+	c #F98E0C",
"Y+	c #F78E09",
"Z+	c #F5961B",
"`+	c #FEE378",
" @	c #FEF1BE",
".@	c #FEF0BE",
"+@	c #FFEFAD",
"@@	c #F7BB29",
"#@	c #F78314",
"$@	c #FA8F09",
"%@	c #FA8F08",
"&@	c #FA8D08",
"*@	c #F98E04",
"=@	c #FBB602",
"-@	c #FBB702",
";@	c #FDB604",
">@	c #FDB504",
",@	c #F7A104",
"'@	c #AC6D1C",
")@	c #262424",
"!@	c #F4C259",
"~@	c #F7C04F",
"{@	c #F7C252",
"]@	c #F6C65B",
"^@	c #FDE997",
"/@	c #FAB815",
"(@	c #FBB502",
"_@	c #F49D0C",
":@	c #F5950C",
"<@	c #F99D06",
"[@	c #FAA404",
"}@	c #FCAF03",
"|@	c #FBB601",
"1@	c #F9A803",
"2@	c #FBA105",
"3@	c #FAAE03",
"4@	c #FBAE01",
"5@	c #FAA603",
"6@	c #CD871A",
"7@	c #FEEFBB",
"8@	c #FEECAD",
"9@	c #F7B926",
"0@	c #FBB603",
"a@	c #F89705",
"b@	c #FB8E08",
"c@	c #FCAA04",
"d@	c #FAB502",
"e@	c #FBB501",
"f@	c #FA9E03",
"g@	c #F88F03",
"h@	c #FBA605",
"i@	c #FAB703",
"j@	c #FCB502",
"k@	c #FAB501",
"l@	c #F9B402",
"m@	c #F9B502",
"n@	c #FDE898",
"o@	c #FAB614",
"p@	c #FAB702",
"q@	c #F7A704",
"r@	c #F9A206",
"s@	c #FAA307",
"t@	c #FAA204",
"u@	c #FCAF02",
"v@	c #FAB601",
"w@	c #FAB602",
"x@	c #FCA903",
"y@	c #FBA304",
"z@	c #FCAC04",
"A@	c #FBB403",
"B@	c #FAE382",
"C@	c #FEF2B9",
"D@	c #FEF2BF",
"E@	c #FEEEB0",
"F@	c #F9B50D",
"G@	c #FAB405",
"H@	c #FCE78E",
"I@	c #FBB409",
"J@	c #FDB401",
"K@	c #FAA405",
"L@	c #F9A306",
"M@	c #FAB301",
"N@	c #F7B60C",
"O@	c #FDB603",
"P@	c #FDB502",
"Q@	c #F69304",
"R@	c #F68E06",
"S@	c #FCB003",
"T@	c #FEB601",
"U@	c #FDB403",
"V@	c #FCB400",
"W@	c #A57F27",
"X@	c #B59039",
"Y@	c #FAA403",
"Z@	c #FAA704",
"`@	c #F7A403",
" #	c #F8A103",
".#	c #FDB102",
"+#	c #FCB405",
"@#	c #F7B710",
"##	c #F9B603",
"$#	c #F98F06",
"%#	c #F89104",
"&#	c #FCB401",
"*#	c #FAB509",
"=#	c #F19617",
"-#	c #F49A0A",
";#	c #FCB302",
">#	c #F9A205",
",#	c #F9A403",
"'#	c #FBB401",
")#	c #F2950A",
"!#	c #F2930C",
"~#	c #F2950C",
"{#	c #EF980C",
"]#	c #FCB205",
"^#	c #FBB607",
"/#	c #FDB103",
"(#	c #E96915",
"_#	c #EA6419",
":#	c #E9641B",
"<#	c #E46A13",
"[#	c #FDAD0C",
"}#	c #FCB510",
"|#	c #AD5723",
"1#	c #B9641C",
"2#	c #F29914",
"3#	c #F49C0D",
"4#	c #FCB303",
"5#	c #F5990B",
"6#	c #F5950F",
"7#	c #E96816",
"8#	c #EA6519",
"9#	c #EF7516",
"0#	c #ED790C",
"a#	c #FEAF09",
"b#	c #F9B703",
"c#	c #E77213",
"d#	c #FCB006",
"e#	c #E96519",
"f#	c #EA6619",
"g#	c #EB6618",
"h#	c #F8880D",
"i#	c #F78E07",
"j#	c #FEB205",
"k#	c #F7B70B",
"l#	c #231F20",
"m#	c #FCB007",
"n#	c #E86515",
"o#	c #EA6418",
"p#	c #F07314",
"q#	c #F07513",
"r#	c #F78B0B",
"s#	c #F59008",
"t#	c #FEB106",
"u#	c #FBB708",
"v#	c #FCAF08",
"w#	c #E96517",
"x#	c #F98C0B",
"y#	c #F68F07",
"z#	c #F8B614",
"A#	c #F8A004",
"B#	c #FCB106",
"C#	c #ED8512",
"D#	c #F99A07",
"E#	c #F99B04",
"F#	c #F99B05",
"G#	c #F79B0D",
"H#	c #F5B521",
"I#	c #F69911",
"J#	c #F69F03",
"K#	c #FCB402",
"                                                                                                                                ",
"                                                                                                                                ",
"    . . . . . . . . . . . . . . . . . . . . . . . . . . . . . . . . . . . . . . . . . . . . . . . . . . . . . . . . . . . .     ",
"    . . . . . . . . . . . . . . . . . . . . . . . . . . . . . . . . . . . . . . . . . . . . . . . . . . . . . . . . . . . .     ",
"    . . . . . . . . . . . . . . . . . . . . . . . . . . . . . . . . . . . . . . . . . . . . . . . . . . . . . . . . . . . .     ",
"    . . . . . . . . . . . . . . . . . . . . . . . . . . . . . . . . . . . . . . . . . . . . . . . . . . . . . . . . . . . .     ",
"    . . . . . . . . . . . . . . . . . . . . . . . . . . . . . . . . . . . . . . . . . . . . . . . . . . . . . . . . . . . .     ",
"    . . . . . . . . . . . . . . . . . . . . . . . . . . . . . . . . . . . . . . . . . . . . . . . . . . . . . . . . . . . .     ",
"    . . . . . . . . . . . . . . . . . . . . . . . . . . . . . . . . . . . . . . . . . . . . . . . . . . . . . . . . . . . .     ",
"    . . . . . . . . . . . . . . . . . . . . . . + + + + + + . . . . . . . . . . . . . . . . . . . . . . . . . . . . . . . .     ",
"    . . . . . . . . . . . . . . . . . . . . . . + + + + + + . . . . . . . . . . . . . . . . . . . . . . . . . . . . . . . .     ",
"    . . . . . . . . . . . . . . . . . . . . + + @ @ @ @ @ @ + + + + + + + + . . . . . . . . . . . . . . . . . . . . . . . .     ",
"    . . . . . . . . . . . . . . . . . . . . + + @ @ @ @ @ @ + + + + + + + + . . . . . . . . . . . . . . . . . . . . . . . .     ",
"    . . . . . . . . . . . . . . . . . . . . + + @ # $ % & * @ @ @ @ @ @ @ @ + + + + + + + + + + . . . . . . . . . . . . . .     ",
"    . . . . . . . . . . . . . . . . . . . . + + @ @ = - ; > @ @ @ @ @ @ @ @ + + + + + + + + + + . . . . . . . . . . . . . .     ",
"    . . . . . . . . . . . . . . . . . . + + @ @ @ @ , ' ) ! ~ { ] ] ] ^ / ( _ _ _ _ _ _ @ @ @ @ + + + + + . . . . . . . . .     ",
"    . . . . . . . . . . . . . . . . . . + + : < [ } | 1 1 | 2 > 3 3 2 } 4 5 6 _ _ _ _ _ @ @ @ @ + + + + + . . . . . . . . .     ",
"    . . . . . . . . . . . . . . . . . . + + 7 8 9 0 a b c d e f } } } 2 g h i j _ _ _ @ @ @ k l @ @ m m n + + . . . . . . .     ",
"    . . . . . . . . . . . . . . . . . . + + o p q r s t u v w x 2 2 2 2 2 3 y z A B _ p 1 x x C D m E n n + + . . . . . . .     ",
"    . . . . . . . . . . . . . . . . + + @ @ @ F G H _ _ _ _ _ _ I 2 2 2 2 > J K L M N x x x x O m m P P n + + . . . . . . .     ",
"    . . . . . . . . . . . . . . . . + + Q < R S T U _ _ _ _ _ _ V 2 2 2 2 2 2 W W x x x x X E Y P Z P ` n  .+ . . . . . . .     ",
"    . . . . . . . . . . . . . . . . + + ..[ +.@.#.$.%.&._ _ *.=.-.;.>.,.@ '.2 x x x x ).m m P P !.~.~.Z n {.+ . . . . . . .     ",
"    . . . . . . . . . . . . . . . . + + ].f } 9 x ^./.(._ _ _.2 2 :.<.[.@ }.x x |.1.2.3.P 4.n n n 5.5.~.n 6.+ . . . . . . .     ",
"    . . . . . . . . . . . . . . + + @ @ @ @ 2 @ 2 7.8.9.0.a.b.c.@ ;.@ @ @ x d.e.m m P P f.g.~.h.h.~.i.j.n k.+ . . . . . . .     ",
"    . . . . . . . . . . . . . . + + l.p @ m.2 2 2 2 2 2 2 2 > > c.n.x x x m o.p.P q.P r.s.n t.~.u.v.w.x.n y.+ . . . . . . .     ",
"    . . . . . . . . . . . . . . + + z.A.q q > x x x 2 2 2 @ 2 }.x x x B.m m P P C.~.n n n 4.n r.D.E.F.G.H.I.+ . . . . . . .     ",
"    . . . . . . . . . . . . . . + + z.W 9 J.9 @ q m.x 2 @ :.;.x x m m m P P P P P P n K.q.L.r.M.N.O.P.P.Q.R.+ . . . . . . .     ",
"    . . . . . . . . . . . . + + S.T.U.V.W.X.Y.Z.`.x 2 2 > | x x m m  +P..+++@+#+$+P n n K.%+&+*+=+-+;+>+,+'++ . . . . . . .     ",
"    . . . . . . . . . . . . + + )+!+~+{+^.0 ]+^+/+;.| | (+x x _+P P P.P.P.P.:+5.~.g.n n n <+[+P.}+|+1+2+3+ .+ . . . . . . .     ",
"    . . . . . . . . . . . . + + 4+5+6+{+7+^.8+8+9+0+x x x a+m m b+P.P.P.c+d+e+f+g+P n n n <+P.h+i+j+k+l+3+ .+ . . . . . . .     ",
"    . . . . . . . . . . . . + + m+n+o+p+q+c.3 '.x x x r+s+t+u+P P.P.P.P.v+w+w+x+y+r.n n n 4.P.P.z+A+B+B+3+ .+ . . . . . . .     ",
"    . . . . . . . . . . + + C+D+E+F+G+H+}.I+x x x J+m m P P K+P P.P.P.L+M+N+N+O+P+g.n 4.n K.Q+R+S+T+U+B+3+V++ . . . . . . .     ",
"    . . . . . . . . . . + + W+X+Y+Z+x x x `+x  @.@+@@@g.P g.P P P.P.#@$@%@&@&@*@y+=@-@%+%+%+;@>@,@2+w+x+'@)@+ . . . . . . .     ",
"    . . . . . . . . . . + + !@~@{@]@x x x ^@m m P P /@P P P P (@_@:@&@U+%@U+<@[@}@|@1@2@3@%+4.g.4@5@6@+ + . . . . . . . . .     ",
"    . . . . . . . . . . + + x x x x x x 7@8@9@P P P g.P P P P P $+0@a@N+b@*@c@=@d@e@f@g@h@i@j@k@l@m@+ + + . . . . . . . . .     ",
"    . . . . . . . . + + x x x x x n@m m m P o@P P n P P P P P P $+p@q@r@s@t@u@v@w@e@x@y@z@A@P P P P + + + . . . . . . . . .     ",
"    . . . . . . . . + + x B@C@D@p.E@F@e@$+P 5.5.P P $+P $+$+P P P $+P P n P P P P $+i@u._ G@+ + + + . . . . . . . . . . . .     ",
"    . . . . . . . . + + x H@m P P P I@g.5.P 5.5.P P J@u.K@L@M@P P P P P n P P P P J@P P P P + + + + . . . . . . . . . . . .     ",
"    . . . . . . . . + + m m N@P 4.O@j@P P P P P P P J@P@Q@R@S@P P P P P T@U@V@P P t.+ + + + . . . . . . . . . . . . . . . .     ",
"    . . . . . . + + W@X@P P P P Y@Z@P P P P P P P P P e@`@ #.#P P P P P n +#P P P P + + + + . . . . . . . . . . . . . . . .     ",
"    . . . . . . + + @###P P P P $#%#&#i.i.i.P P P P P P P P P P P Z P P P *#+ + + + . . . . . . . . . . . . . . . . . . . .     ",
"    . . . . . . + + =#-#P P P ;#>#,#'#;#)#!#~#{#]#P P P P P P P $+^#P P P P + + + + . . . . . . . . . . . . . . . . . . . .     ",
"    . . . . . . + + P.P.]#_ P $+j@&#V@/#(#_#:#<#[#n P P P P P P 5.}#+ + + + . . . . . . . . . . . . . . . . . . . . . . . .     ",
"    . . . . . . . . |#1#2#3#P e@P 4#5#6#7#8#9#0#a#n P P P P P b#P P + + + + . . . . . . . . . . . . . . . . . . . . . . . .     ",
"    . . . . . . . . + + P.c#P |@P d#P.e#f#g#h#i#j#n %+K.j@(@(@k#+ l#. . . . . . . . . . . . . . . . . . . . . . . . . . . .     ",
"    . . . . . . . . + + P.P.P 5.g.m#n#o#p#q#r#s#t#n O@u#P P P P + + . . . . . . . . . . . . . . . . . . . . . . . . . . . .     ",
"    . . . . . . . . + + P.P.P P j@v#w#8#x#x+x+y#n+K.P@z#+ + + + . . . . . . . . . . . . . . . . . . . . . . . . . . . . . .     ",
"    . . . . . . . . + + P.A#P P j@B#C#C#D#E#F#G#P P P P + + + + . . . . . . . . . . . . . . . . . . . . . . . . . . . . . .     ",
"    . . . . . . + + P.P.P P P P j@g.d@-@K.g.v@H#+ + + + . . . . . . . . . . . . . . . . . . . . . . . . . . . . . . . . . .     ",
"    . . . . . . + + I#J#P P P P P P #+P P P P P + + + + . . . . . . . . . . . . . . . . . . . . . . . . . . . . . . . . . .     ",
"    . . . . . . + + P P &#(@P P P g.g.P + + + + . . . . . . . . . . . . . . . . . . . . . . . . . . . . . . . . . . . . . .     ",
"    . . . . . . + + P K#v@g.P P P P P P + + + + . . . . . . . . . . . . . . . . . . . . . . . . . . . . . . . . . . . . . .     ",
"    . . . . . . + + P P P P $+P + + + + . . . . . . . . . . . . . . . . . . . . . . . . . . . . . . . . . . . . . . . . . .     ",
"    . . . . . . + + P P P P P P + + + + . . . . . . . . . . . . . . . . . . . . . . . . . . . . . . . . . . . . . . . . . .     ",
"    . . . . . . . . + + + + + + . . . . . . . . . . . . . . . . . . . . . . . . . . . . . . . . . . . . . . . . . . . . . .     ",
"    . . . . . . . . + + + + + + . . . . . . . . . . . . . . . . . . . . . . . . . . . . . . . . . . . . . . . . . . . . . .     ",
"    . . . . . . . . . . . . . . . . . . . . . . . . . . . . . . . . . . . . . . . . . . . . . . . . . . . . . . . . . . . .     ",
"    . . . . . . . . . . . . . . . . . . . . . . . . . . . . . . . . . . . . . . . . . . . . . . . . . . . . . . . . . . . .     ",
"    . . . . . . . . . . . . . . . . . . . . . . . . . . . . . . . . . . . . . . . . . . . . . . . . . . . . . . . . . . . .     ",
"    . . . . . . . . . . . . . . . . . . . . . . . . . . . . . . . . . . . . . . . . . . . . . . . . . . . . . . . . . . . .     ",
"    . . . . . . . . . . . . . . . . . . . . . . . . . . . . . . . . . . . . . . . . . . . . . . . . . . . . . . . . . . . .     ",
"    . . . . . . . . . . . . . . . . . . . . . . . . . . . . . . . . . . . . . . . . . . . . . . . . . . . . . . . . . . . .     ",
"                                                                                                                                ",
"                                                                                                                                "};
