/* XPM */
static char * wall_xpm[] = {
"64 64 21 1",
" 	c #B5B5B5",
".	c #C7C7C7",
"+	c #FFFFFF",
"@	c #ACACAC",
"#	c #AEAEAE",
"$	c #A5A5A5",
"%	c #ADADAD",
"&	c #ABABAB",
"*	c #A9A9A9",
"=	c #A7A7A7",
"-	c #A8A8A8",
";	c #A6A6A6",
">	c #BBBBBB",
",	c #E0E0E0",
"'	c #AAAAAA",
")	c #B4B4B4",
"!	c #AFAFAF",
"~	c #B3B3B3",
"{	c #B2B2B2",
"]	c #B1B1B1",
"^	c #B0B0B0",
"                                                                ",
"                                                                ",
"    .+++++++++++++++++++++++++++++++++++++++++++++++++++++++    ",
"     @+++++++++++++++++++++++++++++++++++++++++++++++++++++     ",
"  #   @+++++++++++++++++++++++++++++++++++++++++++++++++++   +  ",
"  +#   $+++++++++++++++++++++++++++++++++++++++++++++++++   ++  ",
"  ++#   $+++++++++++++++++++++++++++++++++++++++++++++++   +++  ",
"  +++%   $+++++++++++++++++++++++++++++++++++++++++++++   ++++  ",
"  ++++@   $+++++++++++++++++++++++++++++++++++++++++++   +++++  ",
"  +++++&   $+++++++++++++++++++++++++++++++++++++++++   ++++++  ",
"  ++++++&   $+++++++++++++++++++++++++++++++++++++++   +++++++  ",
"  +++++++&   $+++++++++++++++++++++++++++++++++++++   ++++++++  ",
"  ++++++++*   $+++++++++++++++++++++++++++++++++++   +++++++++  ",
"  +++++++++*   $+++++++++++++++++++++++++++++++++   ++++++++++  ",
"  ++++++++++*   =+++++++++++++++++++++++++++++++   +++++++++++  ",
"  +++++++++++-   =+++++++++++++++++++++++++++++   ++++++++++++  ",
"  ++++++++++++=   =+++++++++++++++++++++++++++   +++++++++++++  ",
"  +++++++++++++;   =+++++++++++++++++++++++++   ++++++++++++++  ",
"  ++++++++++++++;   =+++++++++++++++++++++++   +++++++++++++++  ",
"  +++++++++++++++;   =+++++++++++++++++++++   ++++++++++++++++  ",
"  ++++++++++++++++>   -+++++++++++++++++++   +++++++++++++++++  ",
"  +++++++++++++++++>   -+++++++++++++++++   ++++++++++++++++++  ",
"  ++++++++++++++++++,   -+++++++++++++++   +++++++++++++++++++  ",
"  +++++++++++++++++++,   -+++++++++++++   ++++++++++++++++++++  ",
"  ++++++++++++++++++++,   -+++++++++++   +++++++++++++++++++++  ",
"  ++++++++++++++++++++++   *+++++++++   ++++++++++++++++++++++  ",
"  +++++++++++++++++++++++   '+++++++   +++++++++++++++++++++++  ",
"  ++++++++++++++++++++++++   '+++++   ++++++++++++++++++++++++  ",
"  +++++++++++++++++++++++++   '+++   +++++++++++++++++++++++++  ",
"  ++++++++++++++++++++++++++   '+   ++++++++++++++++++++++++++  ",
"  +++++++++++++++++++++++++++      +++++++++++++++++++++++++++  ",
"  ++++++++++++++++++++++++++++    ++++++++++++++++++++++++++++  ",
"  ++++++++++++++++++++++++++++    '+++++++++++++++++++++++++++  ",
"  +++++++++++++++++++++++++++      &++++++++++++++++++++++++++  ",
"  ++++++++++++++++++++++++++   ++   &+++++++++++++++++++++++++  ",
"  +++++++++++++++++++++++++   ++++   &++++++++++++++++++++++++  ",
"  ++++++++++++++++++++++++   ++++++   @+++++++++++++++++++++++  ",
"  +++++++++++++++++++++++   ++++++++   @++++++++++++++++++++++  ",
"  ++++++++++++++++++++++   ++++++++++   @+++++++++++++++++++++  ",
"  +++++++++++++++++++++   ++++++++++++   @++++++++++++++++++++  ",
"  ++++++++++++++++++++   ++++++++++++++   @+++++++++++++++++++  ",
"  +++++++++++++++++++   ++++++++++++++++   @++++++++++++++++++  ",
"  ++++++++++++++++++   ++++++++++++++++++   @+++++++++++++++++  ",
"  +++++++++++++++++   ++++++++++++++++++++   %++++++++++++++++  ",
"  ++++++++++++++++   ++++++++++++++++++++++   %+++++++++++++++  ",
"  +++++++++++++++   ++++++++++++++++++++++++   %++++++++++++++  ",
"  ++++++++++++++   ++++++++++++++++++++++++++)  #+++++++++++++  ",
"  +++++++++++++   ++++++++++++++++++++++++++++)  #++++++++++++  ",
"  ++++++++++++   ++++++++++++++++++++++++++++++)  #+++++++++++  ",
"  +++++++++++   ++++++++++++++++++++++++++++++++)  #++++++++++  ",
"  ++++++++++   ++++++++++++++++++++++++++++++++++)  #+++++++++  ",
"  +++++++++   ++++++++++++++++++++++++++++++++++++)  #++++++++  ",
"  ++++++++   ++++++++++++++++++++++++++++++++++++++)  !+++++++  ",
"  +++++++   ++++++++++++++++++++++++++++++++++++++++~  !++++++  ",
"  ++++++  )++++++++++++++++++++++++++++++++++++++++++~  !+++++  ",
"  +++++  )++++++++++++++++++++++++++++++++++++++++++++~  !++++  ",
"  ++++  )++++++++++++++++++++++++++++++++++++++++++++++{  !+++  ",
"  +++  )++++++++++++++++++++++++++++++++++++++++++++++++]  ^++  ",
"  ++  )++++++++++++++++++++++++++++++++++++++++++++++++++]  ^+  ",
"  +  )++++++++++++++++++++++++++++++++++++++++++++++++++++]  ^  ",
"    )++++++++++++++++++++++++++++++++++++++++++++++++++++++]    ",
"   )++++++++++++++++++++++++++++++++++++++++++++++++++++++++]   ",
"                                                                ",
"                                                                "};
