/* XPM */
static char * mouse_trap_xpm[] = {
"64 64 59 1",
" 	c #B5B5B5",
".	c #8E8E8E",
"+	c #AB6428",
"@	c #A07761",
"#	c #A2755C",
"$	c #AA6633",
"%	c #666764",
"&	c #545454",
"*	c #9F5A1E",
"=	c #8E8D8D",
"-	c #918B88",
";	c #B9B9B9",
">	c #000000",
",	c #BEBCB4",
"'	c #FFE271",
")	c #FCE69C",
"!	c #FBB921",
"~	c #F8AB28",
"{	c #FDB601",
"]	c #FCB325",
"^	c #F9AA21",
"/	c #FDCE4E",
"(	c #F8BC4B",
"_	c #F18B12",
":	c #FCB812",
"<	c #FFE270",
"[	c #F27D10",
"}	c #EE7B17",
"|	c #FCB500",
"1	c #F59A0B",
"2	c #EB7B2F",
"3	c #FFE481",
"4	c #F2A317",
"5	c #B8B3B1",
"6	c #F98D07",
"7	c #F79A0E",
"8	c #FCB202",
"9	c #FA8D07",
"0	c #F48112",
"a	c #F08714",
"b	c #FAB037",
"c	c #FAA504",
"d	c #F99507",
"e	c #FAAF04",
"f	c #C2783B",
"g	c #FAAA03",
"h	c #B9B8B8",
"i	c #FBB001",
"j	c #FAB103",
"k	c #FAAF03",
"l	c #F4930C",
"m	c #EC7416",
"n	c #F9A908",
"o	c #D77E19",
"p	c #F69D08",
"q	c #F38110",
"r	c #F5990F",
"s	c #B3671B",
"t	c #AB6429",
"                                                                ",
"                                                                ",
"  ............................................................  ",
"  .....................................+......................  ",
"  ....................................+++.....................  ",
"  ...................................+++++....................  ",
"  ..................................+++++++...................  ",
"  .................................+++++++++..................  ",
"  ................................+++++++++++.................  ",
"  ...............................+++@.#$++++++................  ",
"  ..............................++++....+++++++...............  ",
"  .............................++++..++@.++++.++..............  ",
"  ............................++++@.++++..++...++.............  ",
"  ...........................+++++.++++++...+...++............  ",
"  ..........................+++++..@++++++@.++.%.++...........  ",
"  .........................+++++..+++++++++..+%...++..........  ",
"  ........................+++++..+++++++++++.%++...++.........  ",
"  .......................+++++..++++++++++++%..++.++++........  ",
"  ......................+++++..++++++++++++%++..+++++++.......  ",
"  .....................+++++@.++++++++++++%++++...++++++......  ",
"  ....................+++++@.++++++++++++%+++++++.+++++++.....  ",
"  ...................+++++@.@+++++++++++%+++++++++.+++++++....  ",
"  ..................++++++.++++++++++++%++++++++++..+++++++...  ",
"  .................+++++++....&+++++++%++++++++++++..++++++...  ",
"  ................++++++++...&&&+++++%++++++++++++...+++++*=..  ",
"  ...............+++++++++-.&&&&&+++%++++++++++++..++++++**...  ",
"  ..............++++++++++.&&&&&&&+%++++++++++++..++++++***...  ",
"  .............++++++++++++.&&&&&&%++++++++++++.+++++++***....  ",
"  ............+++++++++;++++.&&&&%&&+++++++%++..++++++***.....  ",
"  ...........+++++++++;;;++++.&&%&&&&+++++%+%+..+++++***......  ",
"  ..........+++++++++>>>>,++++.%&&&&&&+++%+++..+++++***.......  ",
"  .........++++++>>>>>'''>;+++%.&&&&&&&+%++..@%++++***........  ",
"  ........+++++>>)'!~'''''>;+%++.&&&&&.%+++..+++++***.........  ",
"  .......++++++>{))'''']^'>;%++++.&&&...++..+++++***..........  ",
"  ......+++++++>{{))'''/(''>;;++++.&....+..@++++***...........  ",
"  .....++++++++>_{{:))'<'''>;;;++++.......+++++***............  ",
"  ....+++++++++>[}{|12)'3''4>;;;++++++++++++++***.............  ",
"  ...+++++++++5>67{890a))''b>;;;;++++++++++++***..............  ",
"  ..+++++++++++5>{{{cde|{))''>;;;;++++++++++***...............  ",
"  ..f+++++++++++5>>{{{|g{{{))>;;;;;++++++++***................  ",
"  ..ff+++++++++++h5>>{{i|jk{{{>;;;++++++++***.................  ",
"  ..fff++++++++++++5h>{{{lmn{o>;;++++++++***..................  ",
"  ...fff+++++++++++++h>>{pqr{s>;++++++++***...................  ",
"  ....fff+++++++++++++h;>>{{{{>++++++++***....................  ",
"  .....fff+++++++++++++hh;>>{{>+++++++***.....................  ",
"  ......fff+++++++++++++th;;>>>++++++***......................  ",
"  .......fff+++++++++++++tht++++++++***.......................  ",
"  ........fff++++++++++++++++++++++***........................  ",
"  .........fff++++++++++++++++++++***.........................  ",
"  ..........fff++++++++++++++++++***..........................  ",
"  ...........fff++++++++++++++++***...........................  ",
"  ............fff++++++++++++++***............................  ",
"  .............fff++++++++++++***.............................  ",
"  ..............fff++++++++++***..............................  ",
"  ...............fff++++++++***...............................  ",
"  ................fff++++++***................................  ",
"  .................fff++++***.................................  ",
"  ..................fff++***..................................  ",
"  ...................fff***...................................  ",
"  ....................ff**....................................  ",
"  ............................................................  ",
"  ............................................................  ",
"                                                                ",
"                                                                "};
